<svg xmlns="http://www.w3.org/2000/svg" xmlns:xlink="http://www.w3.org/1999/xlink" version="1.1" id="Capa_1" x="0px" y="0px" viewBox="0 0 170 51" style="enable-background:new 0 0 170 51;" xml:space="preserve"> <style type="text/css"> .st0{fill:#1D1D1B;} .st1{fill:#E1251B;} .st2{fill:#FFFFFF;} .st3{fill:#38D430;} </style> <g> <path class="st0" d="M163.7,20.3c2.3,2.5,3.6,5.7,3.6,9.4c0,7.7-6.3,14-14,14L20,43.7c-11,0-20-8.9-20-20s8.9-20,20-20l0,0l150,0 L163.7,20.3z"></path> <polygon class="st1" points="17.1,50.8 148.3,50.8 151,43.7 19.8,43.7 "></polygon> <path class="st2" d="M153.5,19.7c5.6,0,10.2,4.6,10.2,10.2s-4.6,10.2-10.2,10.2l-27.6,0l3.2-8.4l21.8,0c1.1,0,2-0.9,2-2 c0-1.1-0.9-2-2-2l-10.4,0c-3.4,0-6.5-1.7-8.3-4.3l0,0l-12.4,16.7h-14l-3.1-24.5h-5.8l-6.1,16.1H102l-3.2,8.4l-45.9,0l4.4-11.5h-6.9 l-4.4,11.5H35.6l9.3-24.5l-22.5,0c-4.4,0-8,3.6-8,8s3.6,8,8,8l2.1,0l1.2-3.2l-3.5,0l3.4-8.9H38l-7.7,20.4l-10.3,0 c-9.1,0-16.4-7.3-16.4-16.4S10.9,7.3,19.9,7.3l38.5,0l-4.7,12.4l6.9,0l4.7-12.4l11.8,0l-1.7,4.6l0,0l3.4-4.6h32.6l2.9,24.5 l18.1-24.5l32.5,0l-3.2,8.4l-17.4,0c-1.1,0-2,0.9-2,2s0.9,2,2,2H153.5z M84.8,15.7h-11l-7.8,20.6l3.3-4.5h9.4L84.8,15.7z"></path> <polygon class="st3" points="115.1,0.2 131.9,0.2 117.2,19.7 "></polygon> <g> <path class="st2" d="M25.1,48.5c0.1,0,0.2,0,0.3,0c0.1,0,0.2,0,0.3-0.1l0.1-0.7h-0.8l0.1-0.7h1.6l-0.4,2c-0.2,0.1-0.4,0.2-0.7,0.2 c-0.2,0.1-0.5,0.1-0.8,0.1c-0.3,0-0.5,0-0.8-0.1c-0.2-0.1-0.4-0.2-0.6-0.3c-0.2-0.1-0.3-0.3-0.4-0.5s-0.1-0.4-0.1-0.7 c0-0.3,0.1-0.6,0.2-0.9c0.1-0.3,0.3-0.5,0.5-0.8c0.2-0.2,0.4-0.4,0.7-0.5c0.3-0.1,0.6-0.2,0.9-0.2c0.3,0,0.6,0,0.8,0.1 c0.2,0.1,0.4,0.2,0.6,0.4l-0.7,0.6c-0.1-0.1-0.2-0.2-0.3-0.3c-0.1-0.1-0.3-0.1-0.5-0.1c-0.2,0-0.4,0-0.5,0.1 c-0.2,0.1-0.3,0.2-0.4,0.3c-0.1,0.1-0.2,0.3-0.3,0.5c-0.1,0.2-0.1,0.4-0.1,0.6c0,0.1,0,0.3,0.1,0.4c0,0.1,0.1,0.2,0.2,0.3 c0.1,0.1,0.2,0.2,0.3,0.2C24.8,48.5,25,48.5,25.1,48.5z"></path> <path class="st2" d="M28,49.2l0.7-3.9h0.9l-0.5,3.1h1.5l-0.1,0.8H28z"></path> <path class="st2" d="M34,45.3c0.3,0,0.6,0,0.8,0.1c0.2,0.1,0.4,0.2,0.6,0.3c0.2,0.1,0.3,0.3,0.4,0.5c0.1,0.2,0.1,0.4,0.1,0.7 c0,0.3-0.1,0.6-0.2,0.9c-0.1,0.3-0.3,0.5-0.5,0.7c-0.2,0.2-0.4,0.4-0.7,0.5c-0.3,0.1-0.6,0.2-0.9,0.2c-0.3,0-0.6,0-0.8-0.1 c-0.2-0.1-0.4-0.2-0.6-0.3c-0.2-0.1-0.3-0.3-0.4-0.5c-0.1-0.2-0.1-0.4-0.1-0.7c0-0.3,0.1-0.6,0.2-0.9c0.1-0.3,0.3-0.5,0.5-0.7 c0.2-0.2,0.4-0.4,0.7-0.5C33.3,45.3,33.6,45.3,34,45.3z M33.6,48.5c0.2,0,0.4,0,0.5-0.1c0.2-0.1,0.3-0.2,0.4-0.3 c0.1-0.1,0.2-0.3,0.3-0.5c0.1-0.2,0.1-0.4,0.1-0.5c0-0.1,0-0.3-0.1-0.4c0-0.1-0.1-0.2-0.2-0.3c-0.1-0.1-0.2-0.2-0.3-0.2 c-0.1-0.1-0.3-0.1-0.4-0.1c-0.2,0-0.4,0-0.5,0.1c-0.2,0.1-0.3,0.2-0.4,0.3c-0.1,0.1-0.2,0.3-0.3,0.5c-0.1,0.2-0.1,0.4-0.1,0.5 c0,0.1,0,0.3,0.1,0.4c0,0.1,0.1,0.2,0.2,0.3c0.1,0.1,0.2,0.2,0.3,0.2C33.3,48.5,33.5,48.5,33.6,48.5z"></path> <path class="st2" d="M39.2,45.4c0.1,0,0.3,0,0.4,0c0.1,0,0.3,0.1,0.4,0.1c0.1,0.1,0.2,0.2,0.3,0.3c0.1,0.1,0.1,0.2,0.1,0.4 c0,0.3-0.1,0.5-0.2,0.6c-0.2,0.2-0.4,0.3-0.6,0.3v0c0.2,0,0.4,0.1,0.5,0.3c0.1,0.1,0.2,0.3,0.2,0.6c0,0.2,0,0.4-0.1,0.5 c-0.1,0.1-0.2,0.3-0.3,0.4c-0.1,0.1-0.3,0.2-0.5,0.2c-0.2,0.1-0.4,0.1-0.7,0.1H37l0.7-3.9H39.2z M38.2,47.6L38,48.5h0.5 c0.1,0,0.2,0,0.3,0c0.1,0,0.2,0,0.2-0.1c0.1,0,0.1-0.1,0.2-0.2c0-0.1,0.1-0.2,0.1-0.3c0-0.1,0-0.2-0.1-0.3 c-0.1-0.1-0.2-0.1-0.4-0.1H38.2z M38.4,46.1l-0.1,0.8h0.6c0.1,0,0.1,0,0.2,0c0.1,0,0.1,0,0.2-0.1c0.1,0,0.1-0.1,0.1-0.1 c0-0.1,0.1-0.1,0.1-0.2c0-0.1,0-0.2-0.1-0.3c-0.1-0.1-0.2-0.1-0.4-0.1H38.4z"></path> <path class="st2" d="M44.1,49.2L44,48.5h-1.5L42,49.2h-1l2.5-3.9h0.9l0.7,3.9H44.1z M43.7,46.4l-0.8,1.4h1L43.7,46.4z"></path> <path class="st2" d="M46.3,49.2l0.7-3.9h0.9l-0.5,3.1h1.5l-0.1,0.8H46.3z"></path> <path class="st2" d="M54.6,49.2l0.3-1.6h-1.5l-0.3,1.6h-0.9l0.7-3.9h0.9l-0.3,1.5H55l0.3-1.5h0.9l-0.7,3.9H54.6z"></path> <path class="st2" d="M57.2,49.2l0.7-3.9h0.9l-0.7,3.9H57.2z"></path> <path class="st2" d="M61.9,48.5c0.1,0,0.2,0,0.3,0c0.1,0,0.2,0,0.3-0.1l0.1-0.7h-0.8l0.1-0.7h1.6l-0.4,2c-0.2,0.1-0.4,0.2-0.7,0.2 c-0.2,0.1-0.5,0.1-0.8,0.1c-0.3,0-0.5,0-0.8-0.1c-0.2-0.1-0.4-0.2-0.6-0.3c-0.2-0.1-0.3-0.3-0.4-0.5C60,48.1,60,47.9,60,47.6 c0-0.3,0.1-0.6,0.2-0.9c0.1-0.3,0.3-0.5,0.5-0.8c0.2-0.2,0.4-0.4,0.7-0.5c0.3-0.1,0.6-0.2,0.9-0.2c0.3,0,0.6,0,0.8,0.1 c0.2,0.1,0.4,0.2,0.6,0.4L63,46.4c-0.1-0.1-0.2-0.2-0.3-0.3c-0.1-0.1-0.3-0.1-0.5-0.1c-0.2,0-0.4,0-0.5,0.1 c-0.2,0.1-0.3,0.2-0.4,0.3c-0.1,0.1-0.2,0.3-0.3,0.5c-0.1,0.2-0.1,0.4-0.1,0.6c0,0.1,0,0.3,0.1,0.4c0,0.1,0.1,0.2,0.2,0.3 c0.1,0.1,0.2,0.2,0.3,0.2C61.6,48.5,61.8,48.5,61.9,48.5z"></path> <path class="st2" d="M67.2,49.2l0.3-1.6H66l-0.3,1.6h-0.9l0.7-3.9h0.9l-0.3,1.5h1.5l0.3-1.5h0.9l-0.7,3.9H67.2z"></path> <path class="st2" d="M73.8,49.2h-1l-0.6-3.9h1l0.3,2.8h0l1.5-2.8h1.1L73.8,49.2z"></path> <path class="st2" d="M76.6,49.2l0.7-3.9h2.5l-0.1,0.8H78l-0.1,0.7h1.5l-0.1,0.7h-1.5l-0.1,0.8h1.8l-0.1,0.8H76.6z"></path> <path class="st2" d="M83.9,49.2h-1l-0.7-1.6h-0.4l-0.3,1.6h-0.9l0.7-3.9h1.3c0.4,0,0.8,0.1,1,0.3c0.2,0.2,0.4,0.4,0.4,0.8 c0,0.3-0.1,0.6-0.3,0.8c-0.2,0.2-0.4,0.3-0.7,0.4L83.9,49.2z M82.4,47c0.2,0,0.4,0,0.6-0.1c0.1-0.1,0.2-0.2,0.2-0.4 c0-0.2-0.1-0.3-0.2-0.3c-0.1-0.1-0.3-0.1-0.5-0.1h-0.4L82,47H82.4z"></path> <path class="st2" d="M87.2,46.1l-0.5,3.1h-0.9l0.5-3.1h-1.1l0.1-0.8h3l-0.1,0.8H87.2z"></path> <path class="st2" d="M89,49.2l0.7-3.9h0.9l-0.7,3.9H89z"></path> <path class="st2" d="M95.1,48.7c-0.1,0.1-0.2,0.2-0.3,0.2c-0.1,0.1-0.2,0.1-0.3,0.2c-0.1,0.1-0.3,0.1-0.4,0.1 c-0.2,0-0.3,0.1-0.5,0.1c-0.3,0-0.5,0-0.7-0.1c-0.2-0.1-0.4-0.2-0.6-0.3c-0.2-0.1-0.3-0.3-0.4-0.5c-0.1-0.2-0.1-0.4-0.1-0.7 c0-0.3,0.1-0.6,0.2-0.9c0.1-0.3,0.3-0.5,0.5-0.8c0.2-0.2,0.4-0.4,0.7-0.5c0.3-0.1,0.6-0.2,0.9-0.2c0.3,0,0.6,0.1,0.8,0.2 c0.2,0.1,0.4,0.2,0.6,0.4l-0.7,0.6c-0.1-0.1-0.2-0.2-0.3-0.3c-0.1-0.1-0.3-0.1-0.5-0.1c-0.2,0-0.4,0-0.5,0.1 c-0.2,0.1-0.3,0.2-0.4,0.3s-0.2,0.3-0.3,0.5c-0.1,0.2-0.1,0.4-0.1,0.5c0,0.1,0,0.3,0.1,0.4c0,0.1,0.1,0.2,0.2,0.3 c0.1,0.1,0.2,0.2,0.3,0.2c0.1,0.1,0.3,0.1,0.4,0.1c0.2,0,0.3,0,0.5-0.1c0.2-0.1,0.3-0.2,0.4-0.3L95.1,48.7z"></path> <path class="st2" d="M98.8,49.2l-0.1-0.8h-1.5l-0.5,0.8h-1l2.5-3.9H99l0.7,3.9H98.8z M98.4,46.4l-0.8,1.4h1L98.4,46.4z"></path> <path class="st2" d="M101,49.2l0.7-3.9h0.9l-0.5,3.1h1.5l-0.1,0.8H101z"></path> <path class="st2" d="M109.4,46.3c-0.1-0.1-0.2-0.2-0.3-0.2c-0.1-0.1-0.2-0.1-0.4-0.1c-0.1,0-0.1,0-0.2,0c-0.1,0-0.1,0-0.2,0.1 c-0.1,0-0.1,0.1-0.1,0.1c0,0.1-0.1,0.1-0.1,0.2c0,0.1,0,0.2,0.1,0.3c0.1,0.1,0.2,0.1,0.4,0.2c0.2,0.1,0.3,0.1,0.4,0.2 c0.1,0.1,0.2,0.2,0.3,0.2c0.1,0.1,0.2,0.2,0.2,0.3s0.1,0.2,0.1,0.4c0,0.2,0,0.4-0.1,0.6c-0.1,0.2-0.2,0.3-0.4,0.4 c-0.2,0.1-0.3,0.2-0.5,0.2c-0.2,0-0.4,0.1-0.6,0.1c-0.1,0-0.3,0-0.4,0c-0.1,0-0.3-0.1-0.4-0.1c-0.1,0-0.2-0.1-0.4-0.2 c-0.1-0.1-0.2-0.2-0.3-0.3l0.7-0.5c0.1,0.1,0.2,0.2,0.3,0.3c0.1,0.1,0.3,0.1,0.5,0.1c0.1,0,0.2,0,0.2,0c0.1,0,0.1,0,0.2-0.1 c0.1,0,0.1-0.1,0.1-0.1c0-0.1,0.1-0.1,0.1-0.2c0-0.1-0.1-0.2-0.2-0.3c-0.1-0.1-0.3-0.1-0.4-0.2c-0.1,0-0.2-0.1-0.4-0.1 c-0.1-0.1-0.2-0.1-0.3-0.2c-0.1-0.1-0.1-0.2-0.2-0.3c0-0.1-0.1-0.2-0.1-0.4c0-0.2,0-0.4,0.1-0.5s0.2-0.3,0.3-0.4 c0.1-0.1,0.3-0.2,0.5-0.3s0.4-0.1,0.6-0.1c0.1,0,0.2,0,0.3,0c0.1,0,0.2,0.1,0.3,0.1c0.1,0,0.2,0.1,0.3,0.2 c0.1,0.1,0.2,0.1,0.2,0.2L109.4,46.3z"></path> <path class="st2" d="M113.4,45.3c0.3,0,0.6,0,0.8,0.1c0.2,0.1,0.4,0.2,0.6,0.3c0.2,0.1,0.3,0.3,0.4,0.5c0.1,0.2,0.1,0.4,0.1,0.7 c0,0.3-0.1,0.6-0.2,0.9c-0.1,0.3-0.3,0.5-0.5,0.7c-0.2,0.2-0.4,0.4-0.7,0.5c-0.3,0.1-0.6,0.2-0.9,0.2c-0.3,0-0.6,0-0.8-0.1 c-0.2-0.1-0.4-0.2-0.6-0.3c-0.2-0.1-0.3-0.3-0.4-0.5c-0.1-0.2-0.1-0.4-0.1-0.7c0-0.3,0.1-0.6,0.2-0.9c0.1-0.3,0.3-0.5,0.5-0.7 c0.2-0.2,0.4-0.4,0.7-0.5C112.7,45.3,113.1,45.3,113.4,45.3z M113,48.5c0.2,0,0.4,0,0.5-0.1c0.2-0.1,0.3-0.2,0.4-0.3 c0.1-0.1,0.2-0.3,0.3-0.5c0.1-0.2,0.1-0.4,0.1-0.5c0-0.1,0-0.3-0.1-0.4c0-0.1-0.1-0.2-0.2-0.3c-0.1-0.1-0.2-0.2-0.3-0.2 c-0.1-0.1-0.3-0.1-0.4-0.1c-0.2,0-0.4,0-0.5,0.1c-0.2,0.1-0.3,0.2-0.4,0.3c-0.1,0.1-0.2,0.3-0.3,0.5c-0.1,0.2-0.1,0.4-0.1,0.5 c0,0.1,0,0.3,0.1,0.4c0,0.1,0.1,0.2,0.2,0.3c0.1,0.1,0.2,0.2,0.3,0.2S112.9,48.5,113,48.5z"></path> <path class="st2" d="M116.4,49.2l0.7-3.9h0.9l-0.5,3.1h1.5l-0.1,0.8H116.4z"></path> <path class="st2" d="M123.3,48.4c-0.1,0.2-0.2,0.3-0.4,0.5c-0.1,0.1-0.3,0.2-0.5,0.3c-0.2,0.1-0.4,0.1-0.7,0.1 c-0.2,0-0.4,0-0.6-0.1c-0.2-0.1-0.3-0.1-0.5-0.2c-0.1-0.1-0.2-0.2-0.3-0.4c-0.1-0.1-0.1-0.3-0.1-0.5c0-0.1,0-0.1,0-0.2 s0-0.1,0-0.2l0.4-2.4h0.9l-0.4,2.3c0,0,0,0.1,0,0.1c0,0,0,0.1,0,0.1c0,0.1,0,0.2,0,0.2c0,0.1,0.1,0.1,0.1,0.2 c0.1,0.1,0.1,0.1,0.2,0.1c0.1,0,0.2,0,0.3,0c0.2,0,0.3,0,0.4-0.1c0.1,0,0.2-0.1,0.2-0.2c0.1-0.1,0.1-0.2,0.1-0.3 c0-0.1,0.1-0.2,0.1-0.3l0.4-2.4h0.9l-0.4,2.4C123.5,48,123.4,48.2,123.3,48.4z"></path> <path class="st2" d="M127,46.1l-0.5,3.1h-0.9l0.5-3.1H125l0.1-0.8h3l-0.1,0.8H127z"></path> <path class="st2" d="M128.8,49.2l0.7-3.9h0.9l-0.7,3.9H128.8z"></path> <path class="st2" d="M133.9,45.3c0.3,0,0.6,0,0.8,0.1c0.2,0.1,0.4,0.2,0.6,0.3c0.2,0.1,0.3,0.3,0.4,0.5c0.1,0.2,0.1,0.4,0.1,0.7 c0,0.3-0.1,0.6-0.2,0.9c-0.1,0.3-0.3,0.5-0.5,0.7c-0.2,0.2-0.4,0.4-0.7,0.5c-0.3,0.1-0.6,0.2-0.9,0.2c-0.3,0-0.6,0-0.8-0.1 c-0.2-0.1-0.4-0.2-0.6-0.3c-0.2-0.1-0.3-0.3-0.4-0.5c-0.1-0.2-0.1-0.4-0.1-0.7c0-0.3,0.1-0.6,0.2-0.9c0.1-0.3,0.3-0.5,0.5-0.7 c0.2-0.2,0.4-0.4,0.7-0.5C133.2,45.3,133.5,45.3,133.9,45.3z M133.5,48.5c0.2,0,0.4,0,0.5-0.1c0.2-0.1,0.3-0.2,0.4-0.3 c0.1-0.1,0.2-0.3,0.3-0.5c0.1-0.2,0.1-0.4,0.1-0.5c0-0.1,0-0.3-0.1-0.4c0-0.1-0.1-0.2-0.2-0.3c-0.1-0.1-0.2-0.2-0.3-0.2 c-0.1-0.1-0.3-0.1-0.4-0.1c-0.2,0-0.4,0-0.5,0.1c-0.2,0.1-0.3,0.2-0.4,0.3c-0.1,0.1-0.2,0.3-0.3,0.5c-0.1,0.2-0.1,0.4-0.1,0.5 c0,0.1,0,0.3,0.1,0.4c0,0.1,0.1,0.2,0.2,0.3c0.1,0.1,0.2,0.2,0.3,0.2C133.2,48.5,133.4,48.5,133.5,48.5z"></path> <path class="st2" d="M139.3,49.2l-1.1-2.6h0l-0.4,2.6h-0.9l0.7-3.9h1l1.1,2.6h0l0.4-2.6h0.9l-0.7,3.9H139.3z"></path> <path class="st2" d="M144.6,46.3c-0.1-0.1-0.2-0.2-0.3-0.2c-0.1-0.1-0.2-0.1-0.4-0.1c-0.1,0-0.1,0-0.2,0c-0.1,0-0.1,0-0.2,0.1 c-0.1,0-0.1,0.1-0.1,0.1c0,0.1-0.1,0.1-0.1,0.2c0,0.1,0,0.2,0.1,0.3c0.1,0.1,0.2,0.1,0.4,0.2c0.2,0.1,0.3,0.1,0.4,0.2 c0.1,0.1,0.2,0.2,0.3,0.2c0.1,0.1,0.2,0.2,0.2,0.3c0,0.1,0.1,0.2,0.1,0.4c0,0.2,0,0.4-0.1,0.6c-0.1,0.2-0.2,0.3-0.4,0.4 c-0.2,0.1-0.3,0.2-0.5,0.2s-0.4,0.1-0.6,0.1c-0.1,0-0.3,0-0.4,0c-0.1,0-0.3-0.1-0.4-0.1c-0.1,0-0.2-0.1-0.4-0.2 c-0.1-0.1-0.2-0.2-0.3-0.3l0.7-0.5c0.1,0.1,0.2,0.2,0.3,0.3c0.1,0.1,0.3,0.1,0.5,0.1c0.1,0,0.2,0,0.2,0c0.1,0,0.1,0,0.2-0.1 c0.1,0,0.1-0.1,0.1-0.1c0-0.1,0.1-0.1,0.1-0.2c0-0.1-0.1-0.2-0.2-0.3c-0.1-0.1-0.3-0.1-0.4-0.2c-0.1,0-0.2-0.1-0.4-0.1 c-0.1-0.1-0.2-0.1-0.3-0.2c-0.1-0.1-0.1-0.2-0.2-0.3c0-0.1-0.1-0.2-0.1-0.4c0-0.2,0-0.4,0.1-0.5c0.1-0.2,0.2-0.3,0.3-0.4 c0.1-0.1,0.3-0.2,0.5-0.3c0.2-0.1,0.4-0.1,0.6-0.1c0.1,0,0.2,0,0.3,0c0.1,0,0.2,0.1,0.3,0.1c0.1,0,0.2,0.1,0.3,0.2 c0.1,0.1,0.2,0.1,0.2,0.2L144.6,46.3z"></path> </g> </g> </svg>